<svg id="Layer_1" data-name="Layer 1" xmlns="http://www.w3.org/2000/svg" viewBox="0 0 300 200"><defs><style>.cls-1{fill:#fff;stroke:#000;stroke-miterlimit:10;}</style></defs><title>logo</title><rect x="0.5" y="0.5" width="299" height="199"/><path d="M299,1V199H1V1H299m1-1H0V200H300V0Z"/><path class="cls-1" d="M91.39,145.11H38.66L40.05,135,54,129.22V72.16L39.9,68.72,40.78,57q18.67-3.81,44.46-3.81,14.72,0,24.28,2.46T124,63.7q4.9,5.61,4.91,14.91,0,9.15-4.8,15.34a29.26,29.26,0,0,1-12.34,9.27v.07l7.55,11.06a62.13,62.13,0,0,0,9.41,10.8,92.37,92.37,0,0,0,10.8,8.32l2.86,1.9L140.1,145a19.19,19.19,0,0,1-5.2,1.5A42.64,42.64,0,0,1,128,147a34.71,34.71,0,0,1-15.71-3.26,28.16,28.16,0,0,1-10.87-9.89A61.64,61.64,0,0,1,94,116.69l-1.69-5.93H81.06v19l11.21,4ZM81.06,66.45v31.2H95.93a16.56,16.56,0,0,0,3.81-6.3A29,29,0,0,0,101,82.12a14.91,14.91,0,0,0-2.17-7.8,15.68,15.68,0,0,0-6.15-5.78,19,19,0,0,0-9.19-2.16C82.41,66.38,81.6,66.4,81.06,66.45Z"/><path class="cls-1" d="M214,145.11H170.52l1-10.11,12.16-5.78V71.28l-12.38-3.22.73-11.64q15.09-3.37,48.85-3.37,17.66,0,26.33,5.78t8.68,16.63a15.68,15.68,0,0,1-2,7.58,24.15,24.15,0,0,1-5.46,6.74,24.69,24.69,0,0,1-7.36,4.5V95a20,20,0,0,1,9.45,3.12,24.3,24.3,0,0,1,7.88,7.72,19.41,19.41,0,0,1,3.11,10.7q0,14.13-12.23,21.35T214,145.11ZM211,66.38V94h13.48a20.63,20.63,0,0,0,3.37-6.74,28.07,28.07,0,0,0,1.39-8.57A13.09,13.09,0,0,0,226,69.56Q222.75,66,215.64,66A25.55,25.55,0,0,0,211,66.38Zm0,37.94v27.17h10.4q6.08,0,9.23-3.55t3.15-10.51a12.25,12.25,0,0,0-1.9-6.71,13,13,0,0,0-5.64-4.68,21.19,21.19,0,0,0-8.94-1.72Z"/></svg>